<svg id="Group_16914" data-name="Group 16914" xmlns="http://www.w3.org/2000/svg" width="42" height="42" viewBox="0 0 42 42">
  <g id="Group_22602" data-name="Group 22602">
    <circle id="Ellipse_348" data-name="Ellipse 348" cx="21" cy="21" r="21" fill="#f3654a" opacity="0.3"/>
    <g id="Group_16913" data-name="Group 16913" transform="translate(9 9)">
      <path id="Path_8730" data-name="Path 8730" d="M0,0H24.482V24.482H0Z" fill="none"/>
      <path id="Path_8731" data-name="Path 8731" d="M10.121,5.04a2.04,2.04,0,0,1,4.08,0,7.141,7.141,0,0,1,4.08,6.121v3.06a4.08,4.08,0,0,0,2.04,3.06H4a4.08,4.08,0,0,0,2.04-3.06v-3.06a7.141,7.141,0,0,1,4.08-6.121" transform="translate(0.08 0.06)" fill="none" stroke="#f3654a" stroke-linecap="round" stroke-linejoin="round" stroke-width="1.5"/>
      <path id="Path_8732" data-name="Path 8732" d="M9,17v1.02a3.06,3.06,0,1,0,6.121,0V17" transform="translate(0.181 0.342)" fill="none" stroke="#f3654a" stroke-linecap="round" stroke-linejoin="round" stroke-width="1.5"/>
      <path id="Path_8733" data-name="Path 8733" d="M21.056,6.8A11.272,11.272,0,0,0,18.206,3" transform="translate(0.366 0.06)" fill="none" stroke="#f3654a" stroke-linecap="round" stroke-linejoin="round" stroke-width="1.5"/>
      <path id="Path_8734" data-name="Path 8734" d="M3,6.8A11.272,11.272,0,0,1,5.848,3" transform="translate(0.06 0.06)" fill="none" stroke="#f3654a" stroke-linecap="round" stroke-linejoin="round" stroke-width="1.5"/>
    </g>
  </g>
</svg>
