<svg id="Group_17655" data-name="Group 17655" xmlns="http://www.w3.org/2000/svg" width="50.541" height="98.001" viewBox="0 0 50.541 98.001">
  <g id="Group_17653" data-name="Group 17653" transform="translate(0 4.617)">
    <path id="Path_7018" data-name="Path 7018" d="M9.485,13.273A11.591,11.591,0,1,0,24.457.609C23.676.36,22.866.2,22.07,0H19.706c-.3.083-.587.19-.888.246A11.6,11.6,0,0,0,9.485,13.273M20.867,2.887a8.75,8.75,0,1,1-8.684,8.791,8.76,8.76,0,0,1,8.684-8.791" transform="translate(-3.164)" fill="#fb0"/>
    <path id="Path_7019" data-name="Path 7019" d="M35.872,55.127q0-5.022,0-10.043c0-.079,0-.157,0-.237a6.593,6.593,0,0,0-6.776-6.69q-10.988-.029-21.977,0A6.607,6.607,0,0,0,.367,44.886C.334,51.778.358,58.671.356,65.563a4.627,4.627,0,0,0,1.477,3.482c.967.926,1.9,1.888,2.91,2.769A5.888,5.888,0,0,1,6.72,75.95q1.167,12.582,2.407,25.157a4.415,4.415,0,0,0,4.584,4.172q4.431.036,8.861,0a4.349,4.349,0,0,0,4.508-4.093c.8-8.069,1.624-16.137,2.331-24.215.2-2.317.8-4.3,2.723-5.75.655-.5,1.171-1.171,1.8-1.7a5.4,5.4,0,0,0,1.956-4.586q-.028-1.225-.034-2.452c-.017-2.451.014-4.9.013-7.356m-3.795,12.23c-.682.595-1.267,1.305-1.972,1.868a9.725,9.725,0,0,0-3.516,7.3c-.646,7.728-1.441,15.444-2.179,23.164-.034.353-.107.7-.135,1.054a1.646,1.646,0,0,1-1.854,1.691c-2.875,0-5.751.016-8.626-.007a1.64,1.64,0,0,1-1.843-1.715c-.806-8.268-1.631-16.534-2.378-24.807-.224-2.474-.934-4.72-2.972-6.181-2.859-2.05-3.662-4.665-3.482-8.109.281-5.382.072-10.789.076-16.186,0-2.965,1.466-4.44,4.415-4.445q5.259-.009,10.517,0c3.545,0,7.09-.008,10.635,0,2.745.008,4.244,1.491,4.249,4.23.013,6.657-.008,13.314.02,19.971a2.639,2.639,0,0,1-.956,2.165" transform="translate(-0.349 -11.913)" fill="#fb0"/>
  </g>
  <path id="Icon_awesome-star" data-name="Icon awesome-star" d="M9.086.569,7,4.808,2.319,5.49a1.025,1.025,0,0,0-.567,1.748l3.384,3.3-.8,4.658a1.024,1.024,0,0,0,1.485,1.079L10,14.072l4.184,2.2a1.025,1.025,0,0,0,1.485-1.079l-.8-4.658,3.384-3.3a1.025,1.025,0,0,0-.567-1.748l-4.677-.682L10.923.569a1.025,1.025,0,0,0-1.837,0Z" transform="translate(31.973 0.001)" fill="#fb0"/>
</svg>
