<svg id="today-empty-state" xmlns="http://www.w3.org/2000/svg" width="197.548" height="139" viewBox="0 0 197.548 139">
  <path id="Path_6593" data-name="Path 6593" d="M173.269,116.438a27.568,27.568,0,0,0,16.412-20.944c.227-1.379.441-2.762.657-4.112,8.256-51.131-22.235-85.067-40.63-89.8-10.533-2.72-44.8-2.693-74.339,6.336C43.372,17.692,4.987,20.729.89,79.729c-.721,10.43.889,20.758,5.657,27.051,5.07,8.029,31.989,20.58,85.636,18.629C119.844,126.769,149.415,126.527,173.269,116.438Z" transform="translate(-0.726 0)" fill="#f2f4fc"/>
  <path id="Path_6594" data-name="Path 6594" d="M79.845,10.945s-.764-8.661,3.081-7.9a6.914,6.914,0,0,1,5.051,4s1,2.388-3.929,6S79.845,10.945,79.845,10.945Z" transform="translate(-0.726 0)" fill="#703713"/>
  <path id="Path_6595" data-name="Path 6595" d="M85.9,6.825c2.106-.107-3.582,6.5-3.582,6.5" transform="translate(-0.726 0)" fill="none" stroke="#59280e" stroke-linecap="round" stroke-width="2.33"/>
  <path id="Path_6596" data-name="Path 6596" d="M79.132,10.451s-.315-2.527.338-2.567,7.785,1.954,7.662,3.1-1.751,1.935-1.751,1.935Z" transform="translate(-0.726 0)" fill="#373753"/>
  <path id="Path_6597" data-name="Path 6597" d="M53.089,130.785a2.7,2.7,0,0,0-.044-.8l-2.822-11.794a2.806,2.806,0,1,0-5.5,1.107h0l2.388,11.757a3.292,3.292,0,0,0,3.726,2.241,2.785,2.785,0,0,0,2.249-2.531Z" transform="translate(-0.726 0)" fill="#ffbda6"/>
  <path id="Path_6598" data-name="Path 6598" d="M55.25,134.944l-1.015-4.159c-.33-1.365-2.416-.3-7.033.553-.748.139-.653.943-.677,1.039-2.3,2.356-5.839,3.483-5.1,6.623h0l13.135-2.989a.884.884,0,0,0,.665-1.055Z" transform="translate(-0.726 0)" fill="#373753"/>
  <path id="Path_6599" data-name="Path 6599" d="M30.174,97.545a2.888,2.888,0,0,0,.358-.7l4.02-11.3a2.81,2.81,0,0,0-5.214-2.1c-.028.072-.056.143-.076.211l-3.98,11.32a2.81,2.81,0,0,0,4.928,2.579Z" transform="translate(-0.726 0)" fill="#ffbda6"/>
  <path id="Path_6600" data-name="Path 6600" d="M31.368,101.768l-.4-4.418c0-1.4-1.871-.724-6.556-.991-.768-.044-.868.768-.9.848C20.7,98.946,17,99.2,16.987,102.441h0l13.485.2a.876.876,0,0,0,.9-.86Z" transform="translate(-0.726 0)" fill="#373753"/>
  <path id="Path_6601" data-name="Path 6601" d="M78.551,77.389c-1.027-.442-35.3-19.4-42.59-18.612a3.825,3.825,0,0,0-2.416,1.592c-1.568,2.615-11.328,27.862-11.328,27.862s-1.4,1.918.346,3.136S36.4,95.157,36.4,95.157s3.435.959,3.582-2.9a52.935,52.935,0,0,1,2.854-8.574L61.4,94.1" transform="translate(-0.726 0)" fill="#2b59ab"/>
  <path id="Path_6602" data-name="Path 6602" d="M89.74,85.142S91.248,102.7,77.8,102.258s-24.678.143-24.678.143-1.715.143-1.286,1.286c.211.561,2.261,5.946,3.714,10.854,1.513,5.1,2.428,9.716,2.428,9.716s.43,1.286-1.429,1.99S44.256,128,44.256,128a1.989,1.989,0,0,1-2.858-1.716c-.183-1.158-1.95-6.341-3.558-12.57-2.161-8.359-4.287-18.572-4.287-18.572S31.7,91,37.267,89.425s29.693-5,29.693-5Z" transform="translate(-0.726 0)" fill="#2b59ab"/>
  <path id="Path_6603" data-name="Path 6603" d="M35.607,104.471c-1.194-5.175-2.054-9.342-2.054-9.342s-1.855-4.144,3.714-5.716,29.693-5,29.693-5" transform="translate(-0.726 0)" fill="none" stroke="#1e4c8e" stroke-linecap="round" stroke-linejoin="round" stroke-width="2.17"/>
  <path id="Path_6604" data-name="Path 6604" d="M75.275,89.389a7.79,7.79,0,0,0,3.638-1.083.4.4,0,1,0-.386-.709c-1.95,1.075-3.582,1.278-4.86.609-1.421-.74-2.352-2.583-2.623-5.174a.4.4,0,1,0-.8.08c.295,2.878,1.377,4.948,3.045,5.815a4.2,4.2,0,0,0,1.982.462Z" transform="translate(-0.726 0)" fill="#1e4c8e"/>
  <path id="Path_6605" data-name="Path 6605" d="M63.609,83.483c.215-1.676,3.809-27.755,5.493-28.376,4.179-1.54,12.534-1.007,14.162.6,7.165,7.065,7.077,29.367,6.484,29.455C88.116,85.731,73.3,87.459,63.609,83.483Z" transform="translate(-0.726 0)" fill="#ff7641"/>
  <path id="Path_6606" data-name="Path 6606" d="M64.07,75.478a2.683,2.683,0,0,1-.828-.127c-3.077-.939-5.067-2.981-5.457-5.6-.609-4.084,2.623-8.554,9.608-13.286a2.818,2.818,0,0,1,3.145,4.673h0c-6.006,4.068-7.34,6.894-7.2,7.813.068.454.848.848,1.552,1.063a2.81,2.81,0,0,1-.82,5.493Z" transform="translate(-0.726 0)" fill="#ff7641"/>
  <path id="Path_6607" data-name="Path 6607" d="M74.2,84.613a.4.4,0,0,0,.4-.4c.084-2.189.1-11.583.123-13,.036-2.309.06-9.063.354-12.622a.4.4,0,0,0-.362-.434h0a.4.4,0,0,0-.434.37c-.294,3.582-.318,10.349-.354,12.673,0,1.413-.04,10.807-.127,12.984a.4.4,0,0,0,.374.4H74.2Z" transform="translate(-0.726 0)" fill="#f45721"/>
  <path id="Path_6608" data-name="Path 6608" d="M73.56,87.849c-7.869-.147-24.185-.513-32.038-.665a4.378,4.378,0,0,1-4.267-4.466,4.448,4.448,0,0,1,.207-1.23v-.04c13.3-1.333,25.924-.2,39.246-.227A1.282,1.282,0,0,1,78,82.5V83.69A4.378,4.378,0,0,1,73.56,87.849Z" transform="translate(-0.726 0)" fill="#727491"/>
  <path id="Path_6609" data-name="Path 6609" d="M76.772,81.174c-9.445-.112-6.958-.072-13.461-.211.04.86.044,1.9,0,2.7a4.379,4.379,0,0,1-2.854,3.917c5.023.107,9.8.207,13.1.267A4.355,4.355,0,0,0,78,83.666V82.472A1.29,1.29,0,0,0,76.772,81.174Z" transform="translate(-0.726 0)" fill="#a7acc5"/>
  <path id="Path_6610" data-name="Path 6610" d="M73.313,44.368c-.669,4.545-2.129,9.011-2.225,10.42a2.7,2.7,0,0,1-.06.434c-.306,1.333,3.379,2.074,5.079,2.09.8,0,5.64.151,5.342-1.429.048-.243-.76-4.1-1.094-11.4a.621.621,0,0,0-.609-.605C74.061,43.95,73.4,43.715,73.313,44.368Z" transform="translate(-0.726 0)" fill="#ffbda6"/>
  <path id="Path_6611" data-name="Path 6611" d="M62.1,73.11a2.818,2.818,0,0,0,2.368-1.294l7.344-11.523a2.806,2.806,0,1,0-4.729-3.021h0l-7.34,11.519A2.806,2.806,0,0,0,62.1,73.11Z" transform="translate(-0.726 0)" fill="#ff7641"/>
  <path id="Path_6612" data-name="Path 6612" d="M75.287,80.235C80.768,79.168,85.314,77.6,88.3,75.709A2.81,2.81,0,0,0,85.3,70.961c-2.917,1.847-8.172,3.419-14.409,4.327l-5.549.569a2.81,2.81,0,1,0,.346,5.608,2.228,2.228,0,0,0,.235-.024l5.612-.593.1-.024C72.895,80.673,74.113,80.462,75.287,80.235Z" transform="translate(-0.726 0)" fill="#ffbda6"/>
  <path id="Path_6613" data-name="Path 6613" d="M62.188,83.057c-22.461.434-26.6.669-26.541-3.582.227-15.718-.625-17.712,2.631-17.593,12.474.446,24.28-1.333,26.405.919,1.875,1.99,1.489,6.83,1.063,16.781A3.69,3.69,0,0,1,62.188,83.057Z" transform="translate(-0.726 0)" fill="#a7acc5"/>
  <path id="Path_6614" data-name="Path 6614" d="M50.661,75.323c-3.813,0-3.785-6.229,0-5.763C55.533,70.16,54.49,75.323,50.661,75.323Z" transform="translate(-0.726 0)" fill="#ccd5e2"/>
  <path id="Path_6615" data-name="Path 6615" d="M87.889,75.478a2.64,2.64,0,0,0,.824-.127c3.081-.939,5.067-2.981,5.461-5.6.609-4.084-2.623-8.554-9.612-13.286a2.814,2.814,0,0,0-3.145,4.665h0c6.006,4.068,7.34,6.894,7.2,7.813-.068.454-.848.848-1.556,1.063a2.81,2.81,0,0,0,.824,5.493Z" transform="translate(-0.726 0)" fill="#ff7641"/>
  <path id="Path_6616" data-name="Path 6616" d="M78.587,62.658a.366.366,0,0,0,.251-.1,16.562,16.562,0,0,0,4.888-6.046.4.4,0,0,0-.187-.525h0a.4.4,0,0,0-.533.191h0a15.324,15.324,0,0,1-4.378,5.529c-.275-.275-.541-.561-.828-.868a14.934,14.934,0,0,0-2.89-2.619.4.4,0,0,0-.474.048c-.462.4-1.031,1-1.592,1.564-.438.438-.876.9-1.274,1.294A6.926,6.926,0,0,1,69.528,55.6a.4.4,0,0,0-.4-.4h0a.4.4,0,0,0-.4.4h0c0,2.89.721,4.673,2.567,6.368a.4.4,0,0,0,.541,0c.462-.422,1.031-1,1.592-1.56s.915-.943,1.333-1.337a15.616,15.616,0,0,1,2.464,2.317c.4.4.74.8,1.115,1.154A.4.4,0,0,0,78.587,62.658Z" transform="translate(-0.726 0)" fill="#f45721"/>
  <path id="Path_6617" data-name="Path 6617" d="M85.166,70.407a.453.453,0,0,0,.179-.04l1.692-.844a1.775,1.775,0,0,0,.892-2.189,3.632,3.632,0,0,0-.8-1.274.4.4,0,1,0-.569.565,2.94,2.94,0,0,1,.621.987.987.987,0,0,1-.493,1.194L85,69.643a.4.4,0,0,0-.187.533.426.426,0,0,0,.354.231Z" transform="translate(-0.726 0)" fill="#f45721"/>
  <path id="Path_6618" data-name="Path 6618" d="M90.966,75.032l-4.776-6.006c-1.043-1.592-3.582.852-3.547.84a1.23,1.23,0,0,0-.3,1.7l3.937,5.97c1.043,1.592,3.582-.856,3.547-.84C90.384,76.3,91.376,75.594,90.966,75.032Z" transform="translate(-0.726 0)" fill="#ff9c73"/>
  <path id="Path_6619" data-name="Path 6619" d="M67.816,24.908h0c-3.825.856-5.572,2.046-4.315,9.338.589,3.423,1.445,8.538,4.1,10.667a6.764,6.764,0,0,0,2.571,1.254c3.164.8,12.243-1.369,13.6-2.062,7.4-3.789,2.014-16.467.82-18.182-.772-1.107-1.23-2.6-2.476-3-4.231-1.357-10.249,1.087-14.3,1.99Z" transform="translate(-0.726 0)" fill="#ffbda6"/>
  <path id="Path_6620" data-name="Path 6620" d="M84.752,39.468a3.087,3.087,0,0,0,4.693-.048c2.3-3.093-1.313-6.086-4.1-4.585Z" transform="translate(-0.726 0)" fill="#ffbda6"/>
  <path id="Path_6621" data-name="Path 6621" d="M78.376,34.063a.908.908,0,0,1,1.027.76.826.826,0,0,1,0,.1.848.848,0,0,1-.872.8.958.958,0,0,1-.824-1.333A.824.824,0,0,1,78.376,34.063Z" transform="translate(-0.726 0)" fill="#c1564d"/>
  <path id="Path_6622" data-name="Path 6622" d="M67.462,36.479a.938.938,0,0,1,.8,1.194.9.9,0,0,1-1.134.577.848.848,0,0,1-.633-1.015.888.888,0,0,1,.207-.4.828.828,0,0,1,.724-.354Z" transform="translate(-0.726 0)" fill="#c1564d"/>
  <g id="Group_6798" data-name="Group 6798" transform="translate(-0.726 0)" opacity="0.4">
    <path id="Path_6623" data-name="Path 6623" d="M72.919,38.64a1.755,1.755,0,0,1-1.592-.2.4.4,0,0,1-.091-.123c-.442-.911-.346-1.262.052-1.751.291-.354.736-.892.569-3.16a.4.4,0,0,1,.8-.06c.175,2.388-.275,3.16-.768,3.742-.187.227-.235.283,0,.8a1.775,1.775,0,0,0,1.194-.1.4.4,0,0,1,.506.235h0a.4.4,0,0,1-.231.505h0C73.205,38.569,73.054,38.608,72.919,38.64Z" fill="#d36e63"/>
  </g>
  <path id="Path_6624" data-name="Path 6624" d="M79.637,30.747a.4.4,0,0,1-.235,0,5.142,5.142,0,0,0-3.316-.135.4.4,0,0,1-.493-.255h0a.4.4,0,0,1,.247-.494.156.156,0,0,1,.04,0,5.887,5.887,0,0,1,3.841.159.393.393,0,0,1-.06.768Z" transform="translate(-0.726 0)" fill="#703713"/>
  <path id="Path_6625" data-name="Path 6625" d="M65.221,33.971a.4.4,0,0,1-.362-.693,5.922,5.922,0,0,1,3.507-1.592.4.4,0,0,1,.068.8A5.174,5.174,0,0,0,65.4,33.836a.4.4,0,0,1-.179.135Z" transform="translate(-0.726 0)" fill="#703713"/>
  <path id="Path_6626" data-name="Path 6626" d="M65.635,21.831a.4.4,0,1,1-.2-.756h0a16.093,16.093,0,0,0,8.12-5.389.406.406,0,1,1,.633.509,16.936,16.936,0,0,1-8.538,5.652Z" transform="translate(-0.726 0)" fill="#59280e"/>
  <path id="Path_6627" data-name="Path 6627" d="M71.526,23.6a.4.4,0,1,1-.326-.732,15.557,15.557,0,0,0,4.163-4.446.4.4,0,1,1,.689.422,16.546,16.546,0,0,1-4.378,4.681.493.493,0,0,1-.147.076Z" transform="translate(-0.726 0)" fill="#59280e"/>
  <path id="Path_6628" data-name="Path 6628" d="M87.316,27.352a.4.4,0,0,1-.482-.271.327.327,0,0,1,0-.151,6.92,6.92,0,0,0-.362-2.786.4.4,0,0,1,.227-.506h.02a.4.4,0,0,1,.506.227v.024a7.881,7.881,0,0,1,.4,3.1A.4.4,0,0,1,87.316,27.352Z" transform="translate(-0.726 0)" fill="#59280e"/>
  <path id="Path_6629" data-name="Path 6629" d="M83.24,23.778c1.859,3.045.951,7.2.828,10.349-.116,2.91,1.664,2.981,2.229,2.464a2.253,2.253,0,0,0,.43-.689,5.294,5.294,0,0,1,1.891-2.062c-5.971-12.825-4.378-9.441-4.649-10.027Z" transform="translate(-0.726 0)" fill="#703713"/>
  <path id="Path_6630" data-name="Path 6630" d="M65.535,51.891c3,6.046,9.417,6.185,14.691,4.74,13.756-4.167,6.735-22.5,5.791-23.838-.565-.8-1.624-.7-1.843,1.194-.183,1.528-.183,4.255-.33,4.976-.4,1.887-3.921,2.734-5.409,3.045C73.7,43,68.182,43.2,67,41.9s-2.225-.661-3.184-5.111c0-1.628-1.4-2.205-1.305-.135C62.275,37.808,63.127,47.039,65.535,51.891Z" transform="translate(-0.726 0)" fill="#703713"/>
  <path id="Path_6631" data-name="Path 6631" d="M69,40.451c.8-1,6.806-1.7,7.941-1.1,1.95,1.035,3.208,4.179,3.053,4.972-.084.4-10.249,2.539-11.941.685C67.227,44.109,68.807,40.7,69,40.451Z" transform="translate(-0.726 0)" fill="#703713"/>
  <path id="Path_6632" data-name="Path 6632" d="M73.285,43.1a5.236,5.236,0,0,1-.991.127.4.4,0,1,1-.024-.8,4.506,4.506,0,0,0,3.109-1.369.4.4,0,1,1,.569.565A5.289,5.289,0,0,1,73.285,43.1Z" transform="translate(-0.726 0)" fill="#59280e"/>
  <path id="Path_6633" data-name="Path 6633" d="M61.1,21.358c2.918-7.75,12.737-15.364,23.667-9.25,11.248,6.285,4.868,24.165,4.653,23.484-.151-.478-.951-.8-1.417-.943a.473.473,0,0,0-.525.179l-.689.975a.458.458,0,0,1-.167.147l-1.775.927a.47.47,0,0,1-.689-.4c-.064-1.433-.2-4.824-.275-9.107-.056-3.471-1.624-4.132-2.846-4.116a3.638,3.638,0,0,0-1.91.637L73.85,27.4a6.106,6.106,0,0,1-4.092.86c-2.3-.33-5.632-2.309-6.349.585-.951,1.807,1.568,12.379,1.568,12.379l-.633.37S57.021,32.57,61.1,21.358Z" transform="translate(-0.726 0)" fill="#703713"/>
  <g id="Group_6799" data-name="Group 6799" transform="translate(-0.726 0)">
    <path id="Path_6634" data-name="Path 6634" d="M85.389,29.06s6.643-3,7.563-10.146" fill="none" stroke="#59280e" stroke-linecap="round" stroke-width="2.33"/>
    <path id="Path_6635" data-name="Path 6635" d="M86.46,31.7s4.645-1.572,5.859-4.358" fill="none" stroke="#59280e" stroke-linecap="round" stroke-width="2.33"/>
    <path id="Path_6636" data-name="Path 6636" d="M71.064,22.329S68.138,9.811,76.923,6.857" fill="none" stroke="#59280e" stroke-linecap="round" stroke-width="2.33"/>
    <path id="Path_6637" data-name="Path 6637" d="M62.176,31.416s-3.5-1-4-4.287" fill="none" stroke="#59280e" stroke-linecap="round" stroke-width="2.33"/>
  </g>
  <path id="Path_6638" data-name="Path 6638" d="M189.237,98.423a2.7,2.7,0,0,1-.761-.11l-11.328-3.248a2.763,2.763,0,0,1,1.3-5.369c.073.021.145.038.213.064l11.328,3.277a2.763,2.763,0,0,1-.752,5.411Z" transform="translate(-0.726 0)" fill="#b26d5f"/>
  <path id="Path_6639" data-name="Path 6639" d="M150.529,89.764c23.443,6.023,30.011,14.453,32.306,8.153,1.581-5.063,6.015-12.366,3.027-12.778a34.192,34.192,0,0,1-4.294-.791l-26.933-7.367L136.178,79.46S145.9,88.578,150.529,89.764Z" transform="translate(-0.726 0)" fill="#ffd56a"/>
  <path id="Path_6640" data-name="Path 6640" d="M186.219,102.287a2.681,2.681,0,0,1-.761-.107L174.129,98.9a2.759,2.759,0,1,1,1.531-5.3h0l11.328,3.282a2.755,2.755,0,0,1-.761,5.4Z" transform="translate(-0.726 0)" fill="#b26d5f"/>
  <path id="Path_6641" data-name="Path 6641" d="M104.2,85.632c.216.74-1.314,12.6,9.8,16.523,8.34,2.627,20.931-9.9,27.962-8.042,23.4,6.18,33.921,11.217,34.856,8.135,1.73-5.551,5.182-11.009.944-12.063l-29.433-7.979L129.9,84.688Z" transform="translate(-0.726 0)" fill="#ffd56a"/>
  <path id="Path_6642" data-name="Path 6642" d="M118.444,89.8a7.576,7.576,0,0,1-3.57-1.058.4.4,0,1,1,.378-.693c1.917,1.054,3.524,1.254,4.778.6,1.394-.727,2.308-2.551,2.576-5.1a.391.391,0,1,1,.769.1c-.289,2.827-1.352,4.859-2.975,5.713A4.089,4.089,0,0,1,118.444,89.8Z" transform="translate(-0.726 0)" fill="#feb51f"/>
  <path id="Path_6643" data-name="Path 6643" d="M179.553,94.108h-.046a.425.425,0,0,1-.349-.425c.272-2.38-.714-2.912-1.479-3.1l-29.441-7.975a.4.4,0,1,1,.208-.761h0l29.428,7.974c1.62.4,2.321,1.734,2.075,3.936a.426.426,0,0,1-.4.353Z" transform="translate(-0.726 0)" fill="#feb51f"/>
  <path id="Path_6644" data-name="Path 6644" d="M129.917,84c-.212-1.649-3.745-27.277-5.4-27.885-4.107-1.517-12.328-.99-13.922.582-7.052,6.946-6.954,28.863-6.376,28.935C105.824,86.193,120.4,87.894,129.917,84Z" transform="translate(-0.726 0)" fill="#2b59ab"/>
  <path id="Path_6645" data-name="Path 6645" d="M122.95,23.983c-4.54,0-11.536-1.173-15.728,1.313-1.228.723-1.364,2.419-1.921,3.792-.85,2.1-3.592,16.905,5.207,19.188,1.611.425,11.809.544,15-1.046a7.362,7.362,0,0,0,2.44-1.968c2.325-2.9,2.019-8.527,1.828-12.353-.4-8.077-2.551-8.927-6.823-8.927Z" transform="translate(-0.726 0)" fill="#b26d5f"/>
  <path id="Path_6646" data-name="Path 6646" d="M117.224,36.349a.978.978,0,0,0-.922,1.033V37.5a.926.926,0,0,0,1.126.655,1.05,1.05,0,0,0,.714-1.3,1,1,0,0,0-.157-.319.85.85,0,0,0-.761-.191Z" transform="translate(-0.726 0)" fill="#823e30"/>
  <path id="Path_6647" data-name="Path 6647" d="M127.09,36.311a1.051,1.051,0,0,0-.642,1.339,1.148,1.148,0,0,0,.051.115.983.983,0,0,0,1.348.353h0a.99.99,0,0,0-.761-1.8Z" transform="translate(-0.726 0)" fill="#823e30"/>
  <path id="Path_6648" data-name="Path 6648" d="M122.555,40.88a4.3,4.3,0,0,1-.774-.076.4.4,0,1,1,.145-.774,1.939,1.939,0,0,0,1.373-.1c.182-.612.11-.659-.141-.905-.472-.425-1.177-1.071-1.381-3.885a.395.395,0,0,1,.365-.425h0a.391.391,0,0,1,.425.353h0c.179,2.5.749,3.018,1.127,3.367.493.446.659.8.323,1.836a.591.591,0,0,1-.072.132A1.765,1.765,0,0,1,122.555,40.88Z" transform="translate(-0.726 0)" fill="#9e594d"/>
  <path id="Path_6649" data-name="Path 6649" d="M121.722,43.907a5.8,5.8,0,0,1-3.52-1.194.382.382,0,0,1-.123-.531.153.153,0,0,1,.03-.047.391.391,0,0,1,.544-.081h0a4.988,4.988,0,0,0,3.613,1,.392.392,0,0,1,.425.348.4.4,0,0,1-.34.425A3.006,3.006,0,0,1,121.722,43.907Z" transform="translate(-0.726 0)" fill="#823e30"/>
  <path id="Path_6650" data-name="Path 6650" d="M113.386,34.461a.426.426,0,0,1-.328-.178.4.4,0,0,1,.111-.544,6.377,6.377,0,0,1,4.03-1.076.387.387,0,0,1,.361.425h0a.391.391,0,0,1-.425.366h0a5.606,5.606,0,0,0-3.528.939A.474.474,0,0,1,113.386,34.461Z" transform="translate(-0.726 0)" fill="#3e4063"/>
  <path id="Path_6651" data-name="Path 6651" d="M129.917,33.785a.382.382,0,0,1-.2-.06A5.653,5.653,0,0,0,126.138,33a.4.4,0,0,1-.106-.782,6.453,6.453,0,0,1,4.089.85.387.387,0,0,1,.14.527h0A.39.39,0,0,1,129.917,33.785Z" transform="translate(-0.726 0)" fill="#3e4063"/>
  <path id="Path_6652" data-name="Path 6652" d="M113.335,24.09a.4.4,0,0,1-.251-.7l4.068-3.43c3.7-3.362,6.8-3.362,8.115-1.934a2.324,2.324,0,0,1-.425,3.4.4.4,0,0,1-.579-.536l.047-.042a1.575,1.575,0,0,0,.353-2.3c-.876-.956-3.473-1.22-7.009,1.968l-4.081,3.443A.427.427,0,0,1,113.335,24.09Z" transform="translate(-0.726 0)" fill="#3d8aed"/>
  <path id="Path_6653" data-name="Path 6653" d="M120.621,21.216a.393.393,0,0,1-.392-.4h0v-.03a.4.4,0,1,1,.787,0v.03a.4.4,0,0,1-.395.4Z" transform="translate(-0.726 0)" fill="#3d8aed"/>
  <path id="Path_6654" data-name="Path 6654" d="M118.24,23.112a.4.4,0,0,1-.395-.4h0a.4.4,0,0,1,.395-.391h0a.386.386,0,0,1,.4.378h0a.4.4,0,0,1-.4.4Z" transform="translate(-0.726 0)" fill="#3d8aed"/>
  <path id="Path_6655" data-name="Path 6655" d="M115.545,24.923a.4.4,0,0,1-.395-.4h0V24.5a.4.4,0,1,1,.786,0v.03a.4.4,0,0,1-.391.4Z" transform="translate(-0.726 0)" fill="#3d8aed"/>
  <path id="Path_6656" data-name="Path 6656" d="M105.05,28.111a.4.4,0,0,1-.361-.229,13.029,13.029,0,0,1-1.012-8.051,9.626,9.626,0,0,1,2.865-5.4.308.308,0,0,1,.153-.076c3.4-.905,9.428-1.313,12.208.6a.4.4,0,1,1-.455.655c-2.286-1.581-7.706-1.5-11.477-.51-2.125,1.853-4.089,7.039-1.589,12.463a.388.388,0,0,1,.016.3.382.382,0,0,1-.2.219h0A.43.43,0,0,1,105.05,28.111Z" transform="translate(-0.726 0)" fill="#a3e0fc"/>
  <path id="Path_6657" data-name="Path 6657" d="M113.335,20.4a.391.391,0,0,1-.349-.208c-.565-1.075-3.209-4.408-6.27-5.071a.391.391,0,0,1-.3-.459h0a.39.39,0,0,1,.467-.3c3.371.735,6.164,4.251,6.8,5.475a.382.382,0,0,1-.153.527h0a.423.423,0,0,1-.195.038Z" transform="translate(-0.726 0)" fill="#a3e0fc"/>
  <path id="Path_6658" data-name="Path 6658" d="M119.7,84.893c7.732-.145,23.766-.506,31.486-.659a4.284,4.284,0,0,0,3.987-5.594V78.6c-13.067-1.313-25.479-.2-38.572-.225a1.275,1.275,0,0,0-1.275,1.254V80.8A4.285,4.285,0,0,0,119.7,84.893Z" transform="translate(-0.726 0)" fill="#727491"/>
  <path id="Path_6659" data-name="Path 6659" d="M116.548,78.329c9.28-.11,6.836-.072,13.229-.208-.038.85-.043,1.87,0,2.657a4.294,4.294,0,0,0,2.8,3.851c-4.931.106-9.628.2-12.867.264a4.285,4.285,0,0,1-4.37-4.115V79.6A1.275,1.275,0,0,1,116.548,78.329Z" transform="translate(-0.726 0)" fill="#a7acc5"/>
  <path id="Path_6660" data-name="Path 6660" d="M120.374,45.56c.655,4.467,2.091,8.854,2.181,10.24a3.583,3.583,0,0,0,.059.425c.3,1.313-3.32,2.04-4.99,2.053-.787,0-5.526.149-5.25-1.4-.042-.238.748-4.03,1.076-11.2a.616.616,0,0,1,.6-.6C119.639,45.148,120.281,44.914,120.374,45.56Z" transform="translate(-0.726 0)" fill="#b26d5f"/>
  <path id="Path_6661" data-name="Path 6661" d="M131.392,73.807a2.766,2.766,0,0,1-2.329-1.275l-7.227-11.32a2.757,2.757,0,1,1,4.642-2.975h0l7.226,11.32a2.767,2.767,0,0,1-2.32,4.251Z" transform="translate(-0.726 0)" fill="#2b59ab"/>
  <path id="Path_6662" data-name="Path 6662" d="M119.15,78.444c-5.488,0-10.164-.659-13.407-1.921a2.763,2.763,0,0,1,2.006-5.143c3.163,1.233,8.532,1.764,14.716,1.466l5.463-.476a2.763,2.763,0,1,1,.718,5.475l-.234.021-5.526.48h-.106C121.539,78.419,120.327,78.444,119.15,78.444Z" transform="translate(-0.726 0)" fill="#b26d5f"/>
  <path id="Path_6663" data-name="Path 6663" d="M130.882,80.183c22.07.425,26.147.655,26.079-3.52-.221-15.447.616-17.407-2.585-17.288-12.259.425-23.851-1.313-25.93.905-1.844,1.968-1.466,6.708-1.045,16.489a3.626,3.626,0,0,0,3.481,3.413Z" transform="translate(-0.726 0)" fill="#a7acc5"/>
  <path id="Path_6664" data-name="Path 6664" d="M142.21,72.591c3.745,0,3.72-6.121,0-5.662C137.4,67.49,138.444,72.591,142.21,72.591Z" transform="translate(-0.726 0)" fill="#ccd5e2"/>
  <path id="Path_6665" data-name="Path 6665" d="M106.053,76.132a2.552,2.552,0,0,1-.816-.123c-3.022-.922-4.978-2.933-5.364-5.526-.6-4.013,2.58-8.408,9.445-13.058a2.767,2.767,0,1,1,3.09,4.591h0c-5.9,4-7.226,6.776-7.077,7.681.063.446.85.85,1.53,1.046a2.763,2.763,0,0,1-.808,5.4Z" transform="translate(-0.726 0)" fill="#2b59ab"/>
  <path id="Path_6666" data-name="Path 6666" d="M115.188,63.533a.356.356,0,0,1-.246-.094,16.331,16.331,0,0,1-4.8-5.951.392.392,0,0,1,.183-.514h0a.4.4,0,0,1,.523.191h0a15.067,15.067,0,0,0,4.327,5.437c.268-.268.531-.553.812-.85a14.688,14.688,0,0,1,2.84-2.572.39.39,0,0,1,.467.047c.451.425,1.012.986,1.547,1.535.425.425.851.889,1.246,1.254a6.818,6.818,0,0,0,2.006-5.437.4.4,0,0,1,.4-.4h0a.4.4,0,0,1,.395.4h0a7.55,7.55,0,0,1-2.525,6.261.378.378,0,0,1-.531,0c-.455-.425-1.012-.982-1.552-1.535s-.9-.922-1.309-1.309a15.331,15.331,0,0,0-2.423,2.274c-.374.4-.727.782-1.093,1.135a.384.384,0,0,1-.259.128Z" transform="translate(-0.726 0)" fill="#323e9c"/>
  <path id="Path_6667" data-name="Path 6667" d="M119.5,72.774a.391.391,0,0,1-.391-.374c-.085-2.151-.106-3.732-.127-5.126-.03-2.27-.06-4.251-.344-7.728a.386.386,0,0,1,.357-.425h0a.425.425,0,0,1,.425.361c.289,3.532.314,5.5.348,7.783,0,1.39.039,2.976.124,5.1a.388.388,0,0,1-.366.4h-.03Z" transform="translate(-0.726 0)" fill="#323e9c"/>
  <path id="Path_6668" data-name="Path 6668" d="M108.723,71.15a.428.428,0,0,1-.179-.043l-1.658-.825a1.743,1.743,0,0,1-.88-2.151,3.611,3.611,0,0,1,.783-1.254.4.4,0,1,1,.569.544,2.851,2.851,0,0,0-.612.974.966.966,0,0,0,.489,1.186l1.658.82a.4.4,0,0,1,.183.523A.426.426,0,0,1,108.723,71.15Z" transform="translate(-0.726 0)" fill="#323e9c"/>
  <path id="Path_6669" data-name="Path 6669" d="M103.022,75.694l4.7-5.9c1.024-1.547,3.511.85,3.485.829a1.2,1.2,0,0,1,.294,1.671l-3.856,5.858c-1.024,1.547-3.511-.85-3.485-.825C103.592,76.939,102.623,76.246,103.022,75.694Z" transform="translate(-0.726 0)" fill="#879df2"/>
  <path id="Path_6670" data-name="Path 6670" d="M190.112,104.722l-3.995-1.313c-1.314-.425-.107-1.968,1.1-6.423.2-.723.978-.561,1.072-.578,2.491-2.07,3.876-5.441,6.89-4.463h0l-3.974,12.212a.849.849,0,0,1-1.084.565Z" transform="translate(-0.726 0)" fill="#373753"/>
  <path id="Path_6671" data-name="Path 6671" d="M193.2,101.237l-4-1.31c-1.314-.425-.1-1.968,1.1-6.423.2-.727.986-.57,1.071-.578,2.491-2.079,3.881-5.45,6.9-4.468h0l-3.979,12.217a.851.851,0,0,1-1.075.565Z" transform="translate(-0.726 0)" fill="#373753"/>
  <path id="Path_6672" data-name="Path 6672" d="M102.665,39.082c-7.341-1.8-9.241-16.187-1.572-16.289-2.551-3.4,1.445-6.584,5.075-5.526,1.318-5.666,8.128-6.2,12.463-2.767,3-7.588,16.634-2.648,16.544,4.744-.174,13.781-26.418,3.324-27.63,12.582-.425,3.209,1.594,3.337,1.611,4.786,0,.956-1.581,4.468-3.226.166C105.569,35.868,103.6,39.312,102.665,39.082Z" transform="translate(-0.726 0)" fill="#373753"/>
  <path id="Path_6673" data-name="Path 6673" d="M107.469,41.088a3.2,3.2,0,0,1-4.757,1.007c-3.022-2.61-.042-6.453,3.107-5.564Z" transform="translate(-0.726 0)" fill="#b26d5f"/>
  <path id="Path_6674" data-name="Path 6674" d="M104.549,41.135a1.427,1.427,0,0,1-.494-.089,1.4,1.4,0,0,1-.85-1.734,1.463,1.463,0,0,1,1.7-1.071.4.4,0,1,1-.141.791.65.65,0,0,0-.773.5.594.594,0,0,0,.378.765.624.624,0,0,0,.68-.179.4.4,0,0,1,.621.519A1.421,1.421,0,0,1,104.549,41.135Z" transform="translate(-0.726 0)" fill="#823e30"/>
</svg>
