<svg id="Component_519_1" data-name="Component 519 – 1" xmlns="http://www.w3.org/2000/svg" width="66" height="67" viewBox="0 0 66 67">
  <ellipse id="Ellipse_40" data-name="Ellipse 40" cx="33" cy="33.5" rx="33" ry="33.5" fill="#1a70d4"/>
  <g id="Group_12261" data-name="Group 12261" transform="translate(-68 -298.313)">
    <g id="eye_unlock_bulk" data-name="eye/unlock/bulk" transform="translate(87 318.31)">
      <g id="vuesax_bulk_unlock" data-name="vuesax/bulk/unlock">
        <g id="unlock">
          <path id="Vector" d="M3.71,1.855A1.855,1.855,0,1,1,1.855,0,1.855,1.855,0,0,1,3.71,1.855Z" transform="translate(11.8 16.033)" fill="#fff" opacity="0.4"/>
          <path id="Vector-2" data-name="Vector" d="M16.67,0H6.088C1.422,0,0,1.422,0,6.088V8.2c0,4.665,1.422,6.088,6.088,6.088H16.67c4.665,0,6.088-1.422,6.088-6.088V6.088C22.758,1.422,21.336,0,16.67,0ZM11.379,10.582a3.436,3.436,0,1,1,3.436-3.436A3.441,3.441,0,0,1,11.379,10.582Z" transform="translate(2.276 10.742)" fill="#fff"/>
          <path id="Vector-3" data-name="Vector" d="M1.593,8.477V7.146c0-3.334.944-5.553,5.553-5.553,4.927,0,5.553,2.4,5.553,4.495a.8.8,0,0,0,1.593,0c0-4.04-2.4-6.088-7.146-6.088C.74,0,0,4.074,0,7.146V8.568A13.53,13.53,0,0,1,1.593,8.477Z" transform="translate(6.509 2.276)" fill="#fff" opacity="0.4"/>
          <path id="Vector-4" data-name="Vector" d="M0,0H27.31V27.31H0Z" fill="none" opacity="0"/>
        </g>
      </g>
    </g>
  </g>
</svg>
