<svg xmlns="http://www.w3.org/2000/svg" xmlns:xlink="http://www.w3.org/1999/xlink" width="40.188" height="16.5" viewBox="0 0 40.188 16.5">
  <defs>
    <linearGradient id="linear-gradient" x1="0.118" y1="0.163" x2="1.025" y2="0.851" gradientUnits="objectBoundingBox">
      <stop offset="0" stop-color="#3480b9"/>
      <stop offset="1" stop-color="#44a16a"/>
    </linearGradient>
  </defs>
  <path id="Path_9397" data-name="Path 9397" d="M.4,1.489l5-15.861H9.289l5,15.861H11.558L7.02-12.741h.595L3.132,1.489ZM3.187-1.947V-4.426h8.327v2.478ZM18.864,1.489l-.011-13.371-5.133-.011v-2.478H26.64v2.489L21.5-11.893l.011,13.382Zm15.5.33a7.783,7.783,0,0,1-3.134-.606A5.853,5.853,0,0,1,28.94-.521,5.615,5.615,0,0,1,27.8-3.2l2.754-.419A3.643,3.643,0,0,0,32-1.441,4.283,4.283,0,0,0,34.53-.67a4.764,4.764,0,0,0,1.6-.264,2.964,2.964,0,0,0,1.217-.771,1.766,1.766,0,0,0,.468-1.245,1.66,1.66,0,0,0-.11-.611,1.492,1.492,0,0,0-.325-.5,2.272,2.272,0,0,0-.551-.4,4.12,4.12,0,0,0-.777-.314l-4.1-1.212a10.451,10.451,0,0,1-1.14-.413,4.573,4.573,0,0,1-1.157-.716,3.5,3.5,0,0,1-.892-1.168,3.984,3.984,0,0,1-.347-1.757,4.18,4.18,0,0,1,.777-2.572,4.679,4.679,0,0,1,2.093-1.559,7.779,7.779,0,0,1,2.924-.507,7.478,7.478,0,0,1,2.908.556,5.573,5.573,0,0,1,2.137,1.581,6.075,6.075,0,0,1,1.212,2.5l-2.853.5a3.166,3.166,0,0,0-.677-1.426,3.269,3.269,0,0,0-1.223-.9,4.159,4.159,0,0,0-1.536-.33,4.081,4.081,0,0,0-1.47.237,2.648,2.648,0,0,0-1.09.71,1.57,1.57,0,0,0-.413,1.079,1.323,1.323,0,0,0,.352.953,2.509,2.509,0,0,0,.876.584,8.61,8.61,0,0,0,1.063.358l2.842.793q.584.154,1.311.419a5.958,5.958,0,0,1,1.4.738,3.749,3.749,0,0,1,1.107,1.245,3.954,3.954,0,0,1,.435,1.961,4.418,4.418,0,0,1-.512,2.164A4.581,4.581,0,0,1,38.693.586a6.3,6.3,0,0,1-1.988.925A8.762,8.762,0,0,1,34.364,1.819Z" transform="translate(-0.4 14.68)" fill="url(#linear-gradient)"/>
</svg>
