<svg xmlns="http://www.w3.org/2000/svg" xmlns:xlink="http://www.w3.org/1999/xlink" width="192.539" height="30.025" viewBox="0 0 192.539 30.025">
  <defs>
    <linearGradient id="linear-gradient" x1="-2.639" y1="3.752" x2="-2.081" y2="4.271" gradientUnits="objectBoundingBox">
      <stop offset="0" stop-color="#3480b9"/>
      <stop offset="0.476" stop-color="#5bc8eb"/>
      <stop offset="0.999" stop-color="#44a16a"/>
    </linearGradient>
    <linearGradient id="linear-gradient-2" x1="114.965" y1="52.809" x2="114.406" y2="52.314" xlink:href="#linear-gradient"/>
    <linearGradient id="linear-gradient-3" x1="0.062" y1="0.07" x2="0.982" y2="1.504" gradientUnits="objectBoundingBox">
      <stop offset="0" stop-color="#44a16a"/>
      <stop offset="1" stop-color="#3480b9"/>
    </linearGradient>
  </defs>
  <g id="Group_22354" data-name="Group 22354" transform="translate(-19.687 -30.029)">
    <g id="Group_7701" data-name="Group 7701" transform="translate(19.687 30.53)">
      <g id="Group_7699" data-name="Group 7699" transform="translate(0 2.083)">
        <path id="Path_2652" data-name="Path 2652" d="M95.891,96.576a6.2,6.2,0,0,1-4.273-1.745,6.1,6.1,0,0,1-1.513-6.8l.027-.063L97.2,72.618a5.715,5.715,0,0,1,4.249-3.389,6.175,6.175,0,0,1,5.6,1.877l9.053,9.568a1.9,1.9,0,1,1-2.756,2.607L104.3,73.714a2.4,2.4,0,0,0-2.163-.753,1.894,1.894,0,0,0-1.446,1.155l-.027.063L93.594,89.52a2.324,2.324,0,0,0,.638,2.564,2.28,2.28,0,0,0,2.571.492l4.587-2.193a1.9,1.9,0,1,1,1.636,3.422L98.439,96A5.891,5.891,0,0,1,95.891,96.576Z" transform="translate(-89.649 -69.134)" fill="url(#linear-gradient)"/>
      </g>
      <g id="Group_7700" data-name="Group 7700" transform="translate(11.496)">
        <path id="Path_2653" data-name="Path 2653" d="M140.1,91.215a6.221,6.221,0,0,1-4.516-1.976l-9.053-9.568a1.9,1.9,0,0,1,2.756-2.607l9.053,9.568a2.4,2.4,0,0,0,2.163.753,1.894,1.894,0,0,0,1.446-1.155l7.09-16.651A2.318,2.318,0,0,0,148.409,67a2.281,2.281,0,0,0-2.571-.492L141.251,68.7a1.9,1.9,0,1,1-1.636-3.422l4.587-2.193a6.227,6.227,0,0,1,8.334,7.968l-7.09,16.652a5.708,5.708,0,0,1-4.259,3.412A6.033,6.033,0,0,1,140.1,91.215Z" transform="translate(-126.015 -62.545)" fill="url(#linear-gradient-2)"/>
      </g>
    </g>
    <path id="Path_8748" data-name="Path 8748" d="M.32,2.409l4.241-13.88H8.474l4.241,13.88h-2.7L6.238-9.832h.5L3.019,2.409ZM2.865-.483V-2.931H10.19V-.483ZM20.021,2.7a6.843,6.843,0,0,1-3.59-.906A6.035,6.035,0,0,1,14.108-.743a8.367,8.367,0,0,1-.814-3.788,8.367,8.367,0,0,1,.814-3.788,6.035,6.035,0,0,1,2.323-2.535,6.843,6.843,0,0,1,3.59-.906,6.625,6.625,0,0,1,4.014,1.186,6.287,6.287,0,0,1,2.289,3.21l-2.641.733a3.766,3.766,0,0,0-1.3-1.961,3.785,3.785,0,0,0-2.361-.7,3.886,3.886,0,0,0-2.2.588,3.579,3.579,0,0,0-1.325,1.658,6.542,6.542,0,0,0-.443,2.516,6.542,6.542,0,0,0,.443,2.516A3.579,3.579,0,0,0,17.819-.357a3.886,3.886,0,0,0,2.2.588,3.766,3.766,0,0,0,2.361-.7,3.791,3.791,0,0,0,1.3-1.957l2.641.733a6.287,6.287,0,0,1-2.289,3.21A6.625,6.625,0,0,1,20.021,2.7ZM34.4,2.7a6.843,6.843,0,0,1-3.59-.906A6.035,6.035,0,0,1,28.489-.743a8.367,8.367,0,0,1-.814-3.788,8.367,8.367,0,0,1,.814-3.788,6.035,6.035,0,0,1,2.323-2.535,6.843,6.843,0,0,1,3.59-.906,6.625,6.625,0,0,1,4.014,1.186,6.287,6.287,0,0,1,2.289,3.21l-2.641.733a3.766,3.766,0,0,0-1.3-1.961,3.785,3.785,0,0,0-2.361-.7,3.886,3.886,0,0,0-2.2.588,3.579,3.579,0,0,0-1.325,1.658,6.542,6.542,0,0,0-.443,2.516,6.542,6.542,0,0,0,.443,2.516A3.579,3.579,0,0,0,32.2-.357,3.886,3.886,0,0,0,34.4.23a3.766,3.766,0,0,0,2.361-.7,3.791,3.791,0,0,0,1.3-1.957l2.641.733a6.287,6.287,0,0,1-2.289,3.21A6.625,6.625,0,0,1,34.4,2.7Zm14.381,0a6.843,6.843,0,0,1-3.59-.906A6.035,6.035,0,0,1,42.87-.743a8.367,8.367,0,0,1-.814-3.788,8.367,8.367,0,0,1,.814-3.788,6.035,6.035,0,0,1,2.323-2.535,6.843,6.843,0,0,1,3.59-.906,6.843,6.843,0,0,1,3.59.906A6.035,6.035,0,0,1,54.7-8.319a8.367,8.367,0,0,1,.814,3.788A8.367,8.367,0,0,1,54.7-.743a6.035,6.035,0,0,1-2.323,2.535A6.843,6.843,0,0,1,48.783,2.7Zm0-2.467a3.76,3.76,0,0,0,2.2-.569A3.556,3.556,0,0,0,52.3-2.006a6.681,6.681,0,0,0,.439-2.525A6.532,6.532,0,0,0,52.3-7.037a3.567,3.567,0,0,0-1.316-1.648,3.971,3.971,0,0,0-2.2-.607,3.76,3.76,0,0,0-2.2.569A3.556,3.556,0,0,0,45.27-7.056a6.681,6.681,0,0,0-.439,2.525,6.532,6.532,0,0,0,.439,2.506A3.567,3.567,0,0,0,46.586-.377,3.971,3.971,0,0,0,48.783.23ZM63.087,2.7a6.167,6.167,0,0,1-2.949-.68A4.929,4.929,0,0,1,58.152.105a5.7,5.7,0,0,1-.713-2.9v-8.656l2.66-.019v8.656a3.223,3.223,0,0,0,.231,1.243,2.893,2.893,0,0,0,.641.964,2.835,2.835,0,0,0,.954.622A3.11,3.11,0,0,0,63.087.23,3.1,3.1,0,0,0,64.268.009a2.843,2.843,0,0,0,.949-.627,2.869,2.869,0,0,0,.631-.964,3.256,3.256,0,0,0,.227-1.234v-8.656h2.66V-2.8a5.7,5.7,0,0,1-.713,2.9,4.929,4.929,0,0,1-1.986,1.913A6.167,6.167,0,0,1,63.087,2.7Zm8.347-.289v-13.88h2.66l6.034,9.253v-9.253h2.66V2.409h-2.66L74.094-6.844V2.409Zm17.272,0V-9.023H84.331v-2.448H95.7v2.448H91.328V2.409Zm8.733,0v-13.88h2.622V2.409Zm5.513,0v-13.88h2.66l6.034,9.253v-9.253h2.66V2.409h-2.66l-6.034-9.253V2.409Zm19.836.289a6.744,6.744,0,0,1-2.5-.467A6.069,6.069,0,0,1,118.2.847a6.511,6.511,0,0,1-1.436-2.265,8.544,8.544,0,0,1-.525-3.113,8.07,8.07,0,0,1,.882-3.918,6.15,6.15,0,0,1,2.371-2.463,6.552,6.552,0,0,1,3.3-.848A6.5,6.5,0,0,1,127-10.517,6.114,6.114,0,0,1,129.054-7l-2.68.386a4.06,4.06,0,0,0-1.229-1.942,3.284,3.284,0,0,0-2.183-.737,3.76,3.76,0,0,0-2.2.569,3.556,3.556,0,0,0-1.316,1.667,6.681,6.681,0,0,0-.439,2.525,6.532,6.532,0,0,0,.439,2.506,3.567,3.567,0,0,0,1.316,1.648,3.971,3.971,0,0,0,2.2.607,3.713,3.713,0,0,0,1.624-.308,3.021,3.021,0,0,0,1.229-1.031,4.567,4.567,0,0,0,.713-1.8h-2.2V-4.936h4.993a4.25,4.25,0,0,1,.029.443q.01.318.01.366a7.5,7.5,0,0,1-.81,3.537,5.973,5.973,0,0,1-2.284,2.414A6.71,6.71,0,0,1,122.789,2.7Z" transform="translate(82.863 49.289)" fill="url(#linear-gradient-3)"/>
    <line id="Line_1006" data-name="Line 1006" y2="30" transform="translate(70.5 30.029)" fill="none" stroke="#e2e7f1" stroke-width="1"/>
  </g>
</svg>
