<svg id="Group_16806" data-name="Group 16806" xmlns="http://www.w3.org/2000/svg" width="24" height="24" viewBox="0 0 24 24">
  <path id="Path_8718" data-name="Path 8718" d="M0,0H24V24H0Z" fill="none"/>
  <path id="Path_8719" data-name="Path 8719" d="M10,5a2,2,0,0,1,4,0,7,7,0,0,1,4,6v3a4,4,0,0,0,2,3H4a4,4,0,0,0,2-3V11a7,7,0,0,1,4-6" fill="none" stroke="#f3654a" stroke-linecap="round" stroke-linejoin="round" stroke-width="1.5"/>
  <path id="Path_8720" data-name="Path 8720" d="M9,17v1a3,3,0,0,0,6,0V17" fill="none" stroke="#f3654a" stroke-linecap="round" stroke-linejoin="round" stroke-width="1.5"/>
  <path id="Path_8721" data-name="Path 8721" d="M21,6.727A11.05,11.05,0,0,0,18.206,3" fill="none" stroke="#f3654a" stroke-linecap="round" stroke-linejoin="round" stroke-width="1.5"/>
  <path id="Path_8722" data-name="Path 8722" d="M3,6.727A11.05,11.05,0,0,1,5.792,3" fill="none" stroke="#f3654a" stroke-linecap="round" stroke-linejoin="round" stroke-width="1.5"/>
</svg>
