<svg xmlns="http://www.w3.org/2000/svg" width="24" height="24" viewBox="0 0 25 25">
  <g id="vuesax_outline_calendar" data-name="vuesax/outline/calendar" transform="translate(-492 -188)">
    <g id="calendar" transform="translate(492 188)">
      <path id="Vector" d="M.8,4.8A.806.806,0,0,1,0,4V.8A.806.806,0,0,1,.8,0a.806.806,0,0,1,.8.8V4A.806.806,0,0,1,.8,4.8Z" transform="translate(7.54 1.334)" fill="#bfc8d1"/>
      <path id="Vector-2" data-name="Vector" d="M.8,4.8A.806.806,0,0,1,0,4V.8A.806.806,0,0,1,.8,0a.806.806,0,0,1,.8.8V4A.806.806,0,0,1,.8,4.8Z" transform="translate(15.86 1.334)" fill="#bfc8d1"/>
      <path id="Vector-3" data-name="Vector" d="M1.067,2.128a1.062,1.062,0,0,1-.405-.085,1.1,1.1,0,0,1-.352-.224A1.1,1.1,0,0,1,0,1.061,1.062,1.062,0,0,1,.085.656,1.232,1.232,0,0,1,.309.3,1.1,1.1,0,0,1,.661.079,1.089,1.089,0,0,1,1.824.3a1.122,1.122,0,0,1,.309.757,1.6,1.6,0,0,1-.021.213.678.678,0,0,1-.064.192.808.808,0,0,1-.1.192,1.681,1.681,0,0,1-.128.16A1.122,1.122,0,0,1,1.067,2.128Z" transform="translate(7.795 12.998)" fill="#bfc8d1"/>
      <path id="Vector-4" data-name="Vector" d="M1.067,2.132a1.062,1.062,0,0,1-.405-.085,1.1,1.1,0,0,1-.352-.224A1.1,1.1,0,0,1,0,1.066,1.062,1.062,0,0,1,.085.66,1.232,1.232,0,0,1,.309.308,1.1,1.1,0,0,1,.661.084,1.069,1.069,0,0,1,1.824.308a1.122,1.122,0,0,1,.309.757,1.6,1.6,0,0,1-.021.213.678.678,0,0,1-.064.192.808.808,0,0,1-.1.192,1.681,1.681,0,0,1-.128.16A1.122,1.122,0,0,1,1.067,2.132Z" transform="translate(11.433 12.993)" fill="#bfc8d1"/>
      <path id="Vector-5" data-name="Vector" d="M1.067,2.132a1.062,1.062,0,0,1-.405-.085,1.1,1.1,0,0,1-.352-.224l-.128-.16a.808.808,0,0,1-.1-.192.678.678,0,0,1-.064-.192A1.6,1.6,0,0,1,0,1.066,1.122,1.122,0,0,1,.309.308,1.1,1.1,0,0,1,.661.084,1.066,1.066,0,0,1,1.824.308a1.122,1.122,0,0,1,.309.757,1.6,1.6,0,0,1-.021.213.678.678,0,0,1-.064.192.808.808,0,0,1-.1.192,1.681,1.681,0,0,1-.128.16A1.122,1.122,0,0,1,1.067,2.132Z" transform="translate(15.071 12.993)" fill="#bfc8d1"/>
      <path id="Vector-6" data-name="Vector" d="M1.067,2.12a1.062,1.062,0,0,1-.405-.085,1.232,1.232,0,0,1-.352-.224A1.122,1.122,0,0,1,0,1.053,1.062,1.062,0,0,1,.085.648,1,1,0,0,1,.309.3,1.117,1.117,0,0,1,1.824.3a1.122,1.122,0,0,1,.309.757,1.122,1.122,0,0,1-.309.757A1.122,1.122,0,0,1,1.067,2.12Z" transform="translate(7.795 16.643)" fill="#bfc8d1"/>
      <path id="Vector-7" data-name="Vector" d="M1.067,2.12a1.122,1.122,0,0,1-.757-.309A1.122,1.122,0,0,1,0,1.053,1.062,1.062,0,0,1,.085.648,1,1,0,0,1,.309.3,1.117,1.117,0,0,1,1.824.3a1,1,0,0,1,.224.352,1.062,1.062,0,0,1,.085.405,1.122,1.122,0,0,1-.309.757A1.122,1.122,0,0,1,1.067,2.12Z" transform="translate(11.433 16.643)" fill="#bfc8d1"/>
      <path id="Vector-8" data-name="Vector" d="M1.067,2.135a1.122,1.122,0,0,1-.757-.309,1,1,0,0,1-.224-.352A1.062,1.062,0,0,1,0,1.068,1.062,1.062,0,0,1,.085.662,1,1,0,0,1,.309.31,1.065,1.065,0,0,1,1.27.022a.644.644,0,0,1,.2.064.808.808,0,0,1,.192.1,1.681,1.681,0,0,1,.16.128,1.122,1.122,0,0,1,.309.757,1.122,1.122,0,0,1-.309.757A1.122,1.122,0,0,1,1.067,2.135Z" transform="translate(15.071 16.629)" fill="#bfc8d1"/>
      <path id="Vector-9" data-name="Vector" d="M18.357,1.6H.776A.794.794,0,0,1,0,.8.794.794,0,0,1,.776,0H18.357a.794.794,0,0,1,.776.8A.794.794,0,0,1,18.357,1.6Z" transform="translate(2.934 8.673)" fill="#bfc8d1"/>
      <path id="Vector-10" data-name="Vector" d="M14.243,20.733H5.956C2.175,20.733,0,18.556,0,14.772V5.961C0,2.177,2.175,0,5.956,0h8.287C18.024,0,20.2,2.177,20.2,5.961v8.811C20.2,18.556,18.024,20.733,14.243,20.733ZM5.956,1.555c-2.963,0-4.4,1.441-4.4,4.406v8.811c0,2.965,1.44,4.406,4.4,4.406h8.287c2.963,0,4.4-1.441,4.4-4.406V5.961c0-2.965-1.44-4.406-4.4-4.406Z" transform="translate(2.4 2.934)" fill="#bfc8d1"/>
      <path id="Vector-11" data-name="Vector" d="M0,0H25V25H0Z" fill="none" opacity="0"/>
    </g>
  </g>
</svg>
