<svg xmlns="http://www.w3.org/2000/svg" xmlns:xlink="http://www.w3.org/1999/xlink" width="47.377" height="16.5" viewBox="0 0 47.377 16.5">
  <defs>
    <linearGradient id="linear-gradient" y1="0.46" x2="1" y2="0.5" gradientUnits="objectBoundingBox">
      <stop offset="0" stop-color="#3480b9"/>
      <stop offset="0.493" stop-color="#5bc8eb"/>
      <stop offset="1" stop-color="#44a16a"/>
    </linearGradient>
  </defs>
  <path id="Path_9287" data-name="Path 9287" d="M8.239.33A7.633,7.633,0,0,1,4.169-.71a6.837,6.837,0,0,1-2.6-2.9A9.716,9.716,0,0,1,.66-7.92a9.716,9.716,0,0,1,.908-4.312,6.837,6.837,0,0,1,2.6-2.9,7.633,7.633,0,0,1,4.07-1.039A7.4,7.4,0,0,1,12.8-14.8a7.2,7.2,0,0,1,2.563,3.691l-2.673.737A4.687,4.687,0,0,0,11.121-12.8a4.522,4.522,0,0,0-2.882-.874,4.652,4.652,0,0,0-2.656.715,4.348,4.348,0,0,0-1.6,2.008A8.042,8.042,0,0,0,3.443-7.92a7.907,7.907,0,0,0,.533,3.03,4.336,4.336,0,0,0,1.6,2.007,4.679,4.679,0,0,0,2.662.715,4.5,4.5,0,0,0,2.882-.88,4.716,4.716,0,0,0,1.573-2.42l2.673.737A7.2,7.2,0,0,1,12.8-1.039,7.4,7.4,0,0,1,8.239.33ZM17.787,0V-15.84h6.545q.231,0,.594.016a5.16,5.16,0,0,1,.671.071,4.766,4.766,0,0,1,2.271.913A4.245,4.245,0,0,1,29.2-13.062a6.288,6.288,0,0,1,.434,2.381,5.634,5.634,0,0,1-.979,3.328,4.327,4.327,0,0,1-3,1.721l-1.133.1H20.438V0Zm9.1,0L23.76-6.446l2.695-.594L29.887,0ZM20.438-8.008h3.784q.22,0,.495-.022a2.6,2.6,0,0,0,.506-.088,2.024,2.024,0,0,0,1.04-.583,2.444,2.444,0,0,0,.539-.946,3.565,3.565,0,0,0,.16-1.034,3.62,3.62,0,0,0-.16-1.039,2.439,2.439,0,0,0-.539-.952,2.024,2.024,0,0,0-1.04-.583,2.354,2.354,0,0,0-.506-.083q-.275-.016-.495-.016H20.438ZM32.307,0V-15.84h2.387L40.172-4.62,45.65-15.84h2.387V0H45.562V-10.153L40.7,0H39.644L34.793-10.153V0Z" transform="translate(-0.66 16.17)" fill="url(#linear-gradient)"/>
</svg>
