<svg id="Component_173_92" data-name="Component 173 – 92" xmlns="http://www.w3.org/2000/svg" width="20" height="20" viewBox="0 0 20 20">
  <g id="profile-2user_outline" data-name="profile-2user/outline">
    <g id="vuesax_outline_profile-2user" data-name="vuesax/outline/profile-2user">
      <g id="profile-2user">
        <path id="Vector" d="M4.458,8.642H4.392a.452.452,0,0,0-.15,0,4.288,4.288,0,1,1,.242,0ZM4.325,1.25a3.072,3.072,0,0,0-.117,6.142,1.387,1.387,0,0,1,.267,0,3.073,3.073,0,0,0-.15-6.142Z" transform="translate(3.175 1.042)" fill="#1baed1"/>
        <path id="Vector-2" data-name="Vector" d="M.8,7.083a.231.231,0,0,1-.075-.008A.66.66,0,0,1,0,6.525.608.608,0,0,1,.52,5.833c.1-.008.208-.008.3-.008A2.293,2.293,0,0,0,.7,1.242.617.617,0,0,1,.07.625.63.63,0,0,1,.7,0,3.549,3.549,0,0,1,4.237,3.542,3.534,3.534,0,0,1,.828,7.083Z" transform="translate(12.98 2.708)" fill="#1baed1"/>
        <path id="Vector-3" data-name="Vector" d="M6.308,8.427a8.232,8.232,0,0,1-4.517-1.25A3.576,3.576,0,0,1,0,4.219,3.613,3.613,0,0,1,1.792,1.244a8.823,8.823,0,0,1,9.033,0A3.6,3.6,0,0,1,12.617,4.2a3.613,3.613,0,0,1-1.792,2.975A8.251,8.251,0,0,1,6.308,8.427ZM2.483,2.294A2.4,2.4,0,0,0,1.25,4.227,2.391,2.391,0,0,0,2.483,6.144a7.531,7.531,0,0,0,7.65,0A2.4,2.4,0,0,0,11.367,4.21a2.391,2.391,0,0,0-1.233-1.917A7.57,7.57,0,0,0,2.483,2.294Z" transform="translate(1.333 10.365)" fill="#1baed1"/>
        <path id="Vector-4" data-name="Vector" d="M0,0H20V20H0Z" fill="none" opacity="0"/>
        <path id="Vector-5" data-name="Vector" d="M.62,6.257a.615.615,0,0,1-.608-.5A.634.634,0,0,1,.5,5.015a3.375,3.375,0,0,0,1.383-.608,1.63,1.63,0,0,0,.733-1.283,1.616,1.616,0,0,0-.725-1.275A3.489,3.489,0,0,0,.52,1.24.628.628,0,1,1,.8.015a4.651,4.651,0,0,1,1.85.833A2.866,2.866,0,0,1,3.862,3.123,2.9,2.9,0,0,1,2.637,5.407,4.514,4.514,0,0,1,.754,6.24.39.39,0,0,1,.62,6.257Z" transform="translate(14.663 11.035)" fill="#1baed1"/>
      </g>
    </g>
  </g>
</svg>
