<svg id="category" xmlns="http://www.w3.org/2000/svg" width="28.4" height="28.4" viewBox="0 0 28.4 28.4">
  <path id="Vector" d="M3.555,9.472H5.922a3.138,3.138,0,0,0,3.55-3.55V3.555A3.138,3.138,0,0,0,5.922,0H3.555A3.138,3.138,0,0,0,0,3.555V5.922a3.138,3.138,0,0,0,3.55,3.55Z" transform="translate(2.362 2.362)" fill="none" stroke="#0a94ff" stroke-linecap="round" stroke-linejoin="round" stroke-width="1.5" opacity="0.34"/>
  <path id="Vector-2" data-name="Vector" d="M3.555,9.472H5.922a3.138,3.138,0,0,0,3.55-3.55V3.555A3.138,3.138,0,0,0,5.922,0H3.555A3.138,3.138,0,0,0,0,3.555V5.922a3.138,3.138,0,0,0,3.55,3.55Z" transform="translate(16.562 2.362)" fill="none" stroke="#0a94ff" stroke-linecap="round" stroke-linejoin="round" stroke-width="1.5"/>
  <path id="Vector-3" data-name="Vector" d="M3.555,9.472H5.922a3.138,3.138,0,0,0,3.55-3.55V3.555A3.138,3.138,0,0,0,5.922,0H3.555A3.138,3.138,0,0,0,0,3.555V5.922a3.138,3.138,0,0,0,3.55,3.55Z" transform="translate(16.562 16.562)" fill="none" stroke="#0a94ff" stroke-linecap="round" stroke-linejoin="round" stroke-width="1.5"/>
  <path id="Vector-4" data-name="Vector" d="M3.555,9.472H5.922a3.138,3.138,0,0,0,3.55-3.55V3.555A3.138,3.138,0,0,0,5.922,0H3.555A3.138,3.138,0,0,0,0,3.555V5.922a3.138,3.138,0,0,0,3.55,3.55Z" transform="translate(2.362 16.562)" fill="none" stroke="#0a94ff" stroke-linecap="round" stroke-linejoin="round" stroke-width="1.5"/>
  <path id="Vector-5" data-name="Vector" d="M0,0H28.4V28.4H0Z" fill="none" opacity="0"/>
</svg>
