<svg id="Component_171_1" data-name="Component 171 – 1" xmlns="http://www.w3.org/2000/svg" width="19.966" height="19.966" viewBox="0 0 19.966 19.966">
  <g id="task_outline" data-name="task/outline">
    <g id="vuesax_outline_task" data-name="vuesax/outline/task">
      <g id="task">
        <path id="Vector" d="M8.943,1.248H.624A.628.628,0,0,1,0,.624.628.628,0,0,1,.624,0H8.943a.628.628,0,0,1,.624.624A.628.628,0,0,1,8.943,1.248Z" transform="translate(8.527 15.599)" fill="#0a94ff"/>
        <path id="Vector-2" data-name="Vector" d="M8.943,1.248H.624A.628.628,0,0,1,0,.624.628.628,0,0,1,.624,0H8.943a.628.628,0,0,1,.624.624A.628.628,0,0,1,8.943,1.248Z" transform="translate(8.527 9.775)" fill="#0a94ff"/>
        <path id="Vector-3" data-name="Vector" d="M8.943,1.248H.624A.628.628,0,0,1,0,.624.628.628,0,0,1,.624,0H8.943a.628.628,0,0,1,.624.624A.628.628,0,0,1,8.943,1.248Z" transform="translate(8.527 3.952)" fill="#0a94ff"/>
        <path id="Vector-4" data-name="Vector" d="M1.454,3.742a.617.617,0,0,1-.441-.183L.181,2.727a.624.624,0,1,1,.882-.882l.391.391L3.509.181a.624.624,0,0,1,.882.882l-2.5,2.5A.617.617,0,0,1,1.454,3.742Z" transform="translate(1.874 2.29)" fill="#0a94ff"/>
        <path id="Vector-5" data-name="Vector" d="M1.454,3.742a.617.617,0,0,1-.441-.183L.181,2.727a.624.624,0,0,1,.882-.882l.391.391L3.509.181a.624.624,0,0,1,.882.882l-2.5,2.5A.617.617,0,0,1,1.454,3.742Z" transform="translate(1.874 8.113)" fill="#0a94ff"/>
        <path id="Vector-6" data-name="Vector" d="M1.454,3.742a.617.617,0,0,1-.441-.183L.181,2.727a.624.624,0,1,1,.882-.882l.391.391L3.509.181a.624.624,0,0,1,.882.882l-2.5,2.5A.617.617,0,0,1,1.454,3.742Z" transform="translate(1.874 13.937)" fill="#0a94ff"/>
        <path id="Vector-7" data-name="Vector" d="M0,0H19.966V19.966H0Z" fill="none" opacity="0"/>
      </g>
    </g>
  </g>
</svg>
