<?xml version="1.0" encoding="utf-8"?>
<!-- Generator: Adobe Illustrator 27.2.0, SVG Export Plug-In . SVG Version: 6.00 Build 0)  -->
<svg version="1.1" id="Layer_1" xmlns="http://www.w3.org/2000/svg" xmlns:xlink="http://www.w3.org/1999/xlink" x="0px" y="0px"
	 viewBox="0 0 157.6 184.9" style="enable-background:new 0 0 157.6 184.9;" xml:space="preserve">
<style type="text/css">
	.st0{fill:#E25668;}
	.st1{fill:#FFB536;}
	.st2{fill:#005DA5;}
	.st3{fill:#209840;}
	.st4{fill:#49DB70;}
	.st5{fill:#895BF1;}
	.st6{fill:#056BBE;}
</style>
<g id="Group_456443" transform="translate(-1521.215 -3677.024)">
	<path id="Path_9357" class="st0" d="M1546.5,3747.4h109.2l-7.5,26.4h-93L1546.5,3747.4z"/>
	<path id="Path_9384" class="st1" d="M1534.8,3715.5h131l-9,26.4h-111.6L1534.8,3715.5z"/>
	<path id="Path_9358" class="st2" d="M1556.8,3778.8h89.8l-6.7,24.8h-76.1L1556.8,3778.8z"/>
	<path id="Path_9359" class="st3" d="M1572,3837.5h60.1l-3.8,24.4h-51.6L1572,3837.5z"/>
	<path id="Path_9398" class="st4" d="M1564.9,3808.1h73.5l-4.7,24.4h-63.1L1564.9,3808.1z"/>
	<g id="Group_23070" transform="translate(1521.215 3677.024)">
		<path id="Path_9356" class="st5" d="M0.1,4.4h157.5l-11.8,29.3H12.3L0.1,4.4z"/>
		<path id="Path_9385" class="st6" d="M78.8,0c43.5,0,78.8,1.7,78.8,3.7s-35.3,3.7-78.8,3.7S0,5.8,0,3.7S35.3,0,78.8,0z"/>
	</g>
</g>
</svg>
