<svg id="Group_7701" data-name="Group 7701" xmlns="http://www.w3.org/2000/svg" xmlns:xlink="http://www.w3.org/1999/xlink" width="27.232" height="20.911" viewBox="0 0 27.232 20.911">
  <defs>
    <linearGradient id="linear-gradient" x1="-2.639" y1="3.752" x2="-2.081" y2="4.271" gradientUnits="objectBoundingBox">
      <stop offset="0" stop-color="#3480b9"/>
      <stop offset="0.476" stop-color="#5bc8eb"/>
      <stop offset="0.999" stop-color="#44a16a"/>
    </linearGradient>
    <linearGradient id="linear-gradient-2" x1="114.965" y1="52.809" x2="114.406" y2="52.314" xlink:href="#linear-gradient"/>
  </defs>
  <g id="Group_7699" data-name="Group 7699" transform="translate(0 1.475)">
    <path id="Path_2652" data-name="Path 2652" d="M94.07,88.57a4.393,4.393,0,0,1-3.026-1.236,4.321,4.321,0,0,1-1.071-4.819l.019-.045L95,71.6a4.048,4.048,0,0,1,3.01-2.4,4.374,4.374,0,0,1,3.967,1.33l6.411,6.777a1.343,1.343,0,1,1-1.952,1.846l-6.411-6.777a1.7,1.7,0,0,0-1.532-.533,1.341,1.341,0,0,0-1.024.818l-.019.045L92.443,83.572a1.646,1.646,0,0,0,.452,1.816,1.615,1.615,0,0,0,1.821.349l3.249-1.553a1.343,1.343,0,1,1,1.159,2.424L95.875,88.16A4.172,4.172,0,0,1,94.07,88.57Z" transform="translate(-89.649 -69.134)" fill="url(#linear-gradient)"/>
  </g>
  <g id="Group_7700" data-name="Group 7700" transform="translate(8.142)">
    <path id="Path_2653" data-name="Path 2653" d="M135.993,82.851a4.406,4.406,0,0,1-3.2-1.4l-6.412-6.777a1.343,1.343,0,0,1,1.952-1.846l6.411,6.777a1.7,1.7,0,0,0,1.532.533,1.342,1.342,0,0,0,1.024-.818l5.021-11.793a1.642,1.642,0,0,0-.448-1.827,1.615,1.615,0,0,0-1.821-.349l-3.249,1.553a1.343,1.343,0,1,1-1.159-2.424l3.248-1.553a4.411,4.411,0,0,1,5.9,5.644l-5.021,11.794a4.043,4.043,0,0,1-3.016,2.416A4.273,4.273,0,0,1,135.993,82.851Z" transform="translate(-126.015 -62.545)" fill="url(#linear-gradient-2)"/>
  </g>
</svg>
