<svg xmlns="http://www.w3.org/2000/svg" width="24" height="24" viewBox="0 0 26.11 26.11">
  <g id="notification" transform="translate(0.675 0.675)">
    <path id="Vector" d="M5.677,0A2.669,2.669,0,0,1,2.839,2.437,3.1,3.1,0,0,1,.833,1.722,2.286,2.286,0,0,1,0,0" transform="translate(9.541 21.047)" fill="none" stroke="#abacb0" stroke-linecap="round" stroke-linejoin="round" stroke-width="1.35"/>
    <path id="Vector-2" data-name="Vector" d="M8.3,0a6.19,6.19,0,0,0-6.19,6.19V9.172A4.929,4.929,0,0,1,1.523,11.3L.337,13.267A1.98,1.98,0,0,0,1.451,16.29a21.584,21.584,0,0,0,13.69,0,2.063,2.063,0,0,0,1.114-3.023L15.069,11.3a5.065,5.065,0,0,1-.578-2.125V6.19A6.209,6.209,0,0,0,8.3,0Z" transform="translate(4.1 3.002)" fill="none" stroke="#abacb0" stroke-linecap="round" stroke-width="1.35"/>
    <path id="Vector-3" data-name="Vector" d="M0,0H24.76V24.76H0Z" fill="none" stroke="#bfc8d1" stroke-width="1.35" opacity="0"/>
    <circle id="Ellipse_17" data-name="Ellipse 17" cx="3" cy="3" r="3" transform="translate(14.651 2.002)" fill="#4e8ee2"/>
  </g>
</svg>
