<svg id="Component_172_1" data-name="Component 172 – 1" xmlns="http://www.w3.org/2000/svg" width="20.641" height="20.641" viewBox="0 0 20.641 20.641">
  <g id="personalcard_outline" data-name="personalcard/outline">
    <g id="vuesax_outline_personalcard" data-name="vuesax/outline/personalcard">
      <g id="personalcard">
        <path id="Vector" d="M13.4,16.419H4.893C1.14,16.419,0,15.29,0,11.577V4.841C0,1.128,1.14,0,4.893,0H13.4C17.155,0,18.3,1.128,18.3,4.841v6.736C18.3,15.29,17.155,16.419,13.4,16.419ZM4.893,1.263c-3.046,0-3.616.573-3.616,3.578v6.736c0,3.006.57,3.578,3.616,3.578H13.4c3.046,0,3.616-.573,3.616-3.578V4.841c0-3.006-.57-3.578-3.616-3.578Z" transform="translate(1.173 2.111)" fill="#1ecb40"/>
        <path id="Vector-2" data-name="Vector" d="M5.395,1.407H.7A.709.709,0,0,1,0,.7.709.709,0,0,1,.7,0H5.395a.709.709,0,0,1,.7.7A.709.709,0,0,1,5.395,1.407Z" transform="translate(11.011 6.197)" fill="#1ecb40"/>
        <path id="Vector-3" data-name="Vector" d="M4.456,1.407H.7A.709.709,0,0,1,0,.7.709.709,0,0,1,.7,0H4.456a.709.709,0,0,1,.7.7A.709.709,0,0,1,4.456,1.407Z" transform="translate(11.924 9.617)" fill="#1ecb40"/>
        <path id="Vector-4" data-name="Vector" d="M2.58,1.407H.7A.709.709,0,0,1,0,.7.709.709,0,0,1,.7,0H2.58a.709.709,0,0,1,.7.7A.709.709,0,0,1,2.58,1.407Z" transform="translate(13.759 13.036)" fill="#1ecb40"/>
        <path id="Vector-5" data-name="Vector" d="M2.4,4.8A2.4,2.4,0,1,1,4.8,2.4,2.406,2.406,0,0,1,2.4,4.8Zm0-3.4A.995.995,0,1,0,3.4,2.4,1,1,0,0,0,2.4,1.407Z" transform="translate(4.983 5.805)" fill="#1ecb40"/>
        <path id="Vector-6" data-name="Vector" d="M7.284,3.994a.711.711,0,0,1-.7-.638A2.159,2.159,0,0,0,4.638,1.433a7.459,7.459,0,0,0-1.295,0A2.15,2.15,0,0,0,1.4,3.356.7.7,0,0,1,0,3.216,3.543,3.543,0,0,1,3.212.035a8.635,8.635,0,0,1,1.557,0A3.568,3.568,0,0,1,7.978,3.216a.7.7,0,0,1-.629.769A.16.16,0,0,1,7.284,3.994Z" transform="translate(3.462 10.811)" fill="#1ecb40"/>
        <path id="Vector-7" data-name="Vector" d="M0,0H20.641V20.641H0Z" fill="none" opacity="0"/>
      </g>
    </g>
  </g>
</svg>
