<svg id="Group_16845" data-name="Group 16845" xmlns="http://www.w3.org/2000/svg" width="18" height="18" viewBox="0 0 18 18">
  <path id="Path_8726" data-name="Path 8726" d="M0,0H18V18H0Z" fill="none"/>
  <line id="Line_998" data-name="Line 998" x2="14" y2="14" transform="translate(2 2)" fill="none" stroke="#8d98a9" stroke-linecap="round" stroke-linejoin="round" stroke-width="1.5"/>
  <path id="Path_8727" data-name="Path 8727" d="M10.437,10.587a1.5,1.5,0,0,0,2.121,2.123" transform="translate(-2.499 -2.647)" fill="none" stroke="#8d98a9" stroke-linecap="round" stroke-linejoin="round" stroke-width="1.5"/>
  <path id="Path_8728" data-name="Path 8728" d="M7.522,5.274A7.1,7.1,0,0,1,9.5,5Q14,5,17,10.25a14.271,14.271,0,0,1-1.877,2.616m-1.6,1.4A7.035,7.035,0,0,1,9.5,15.5Q5,15.5,2,10.25A11.77,11.77,0,0,1,5.474,6.244" transform="translate(-0.5 -1.25)" fill="none" stroke="#8d98a9" stroke-linecap="round" stroke-linejoin="round" stroke-width="1.5"/>
</svg>
