<svg id="Group_22976" data-name="Group 22976" xmlns="http://www.w3.org/2000/svg" width="25" height="25" viewBox="0 0 25 25">
  <path id="Path_8831" data-name="Path 8831" d="M0,0H25V25H0Z" fill="none"/>
  <path id="Path_8832" data-name="Path 8832" d="M10.732,4.39a1.819,1.819,0,0,1,3.536,0,1.82,1.82,0,0,0,2.716,1.125,1.821,1.821,0,0,1,2.5,2.5,1.82,1.82,0,0,0,1.124,2.715,1.819,1.819,0,0,1,0,3.536,1.82,1.82,0,0,0-1.125,2.716,1.821,1.821,0,0,1-2.5,2.5,1.82,1.82,0,0,0-2.715,1.124,1.819,1.819,0,0,1-3.536,0,1.82,1.82,0,0,0-2.716-1.125,1.821,1.821,0,0,1-2.5-2.5A1.82,1.82,0,0,0,4.39,14.268a1.819,1.819,0,0,1,0-3.536A1.82,1.82,0,0,0,5.515,8.016a1.821,1.821,0,0,1,2.5-2.5A1.818,1.818,0,0,0,10.732,4.39Z" fill="none" stroke="#0a94ff" stroke-linecap="round" stroke-linejoin="round" stroke-width="1.5"/>
  <circle id="Ellipse_379" data-name="Ellipse 379" cx="3" cy="3" r="3" transform="translate(9.5 9.5)" fill="none" stroke="#0a94ff" stroke-linecap="round" stroke-linejoin="round" stroke-width="1.5"/>
</svg>
