<svg xmlns="http://www.w3.org/2000/svg" xmlns:xlink="http://www.w3.org/1999/xlink" width="24.382" height="26.625" viewBox="0 0 24.382 26.625">
  <defs>
    <clipPath id="clip-path">
      <rect id="Rectangle_544" data-name="Rectangle 544" width="24.382" height="26.625" fill="#f57c20" stroke="#ffb536" stroke-width="0.2"/>
    </clipPath>
  </defs>
  <g id="Group_15370" data-name="Group 15370" transform="translate(-45.441 -538.799)">
    <g id="Group_8266" data-name="Group 8266" transform="translate(45.441 538.799)" clip-path="url(#clip-path)">
      <path id="Path_6821" data-name="Path 6821" d="M13.024,0a15.942,15.942,0,0,1,1.7.314A9.153,9.153,0,0,1,21.587,7.8a20.007,20.007,0,0,1,.162,2.82c.006.119,0,.238,0,.35a3.049,3.049,0,0,1,2.628,3.23c.008,1.282,0,2.564,0,3.847a2.212,2.212,0,0,1-2.094,2.415.429.429,0,0,0-.345.221,6.837,6.837,0,0,1-2.449,2.457,6.6,6.6,0,0,1-3.066.869c-.068,0-.136.011-.2.016a3.276,3.276,0,1,1-.017-1.34c1.208.266,3.465-.856,4.229-2.136-.22,0-.411,0-.6,0a.639.639,0,0,1-.727-.735q0-3.95,0-7.9a1.6,1.6,0,0,1,.062-.46.578.578,0,0,1,.617-.447c.2,0,.4,0,.577,0,.026-.038.043-.051.044-.065a9.146,9.146,0,0,0-1.318-5.993,7.815,7.815,0,0,0-7.252-3.6A7.966,7.966,0,0,0,4.368,8.317c-.115.871-.077,1.762-.111,2.689h.628a.64.64,0,0,1,.7.61,2.589,2.589,0,0,1,.014.363q0,3.912,0,7.823c0,.527-.213.746-.737.746-.814,0-1.63.021-2.443-.015a2.519,2.519,0,0,1-2.4-2.423C-.012,16.6,0,15.078.026,13.563A2.619,2.619,0,0,1,2.7,11.006c.077,0,.154,0,.276,0,0-.127,0-.235,0-.344a15.072,15.072,0,0,1,.165-3.029A9.278,9.278,0,0,1,8.838.688,8.455,8.455,0,0,1,11.526.04.761.761,0,0,0,11.673,0ZM4.275,19.22v-6.9H2.763a1.342,1.342,0,0,0-1.435,1.42c-.009,1.411-.007,2.821,0,4.232A1.219,1.219,0,0,0,2.4,19.209c.616.052,1.24.012,1.874.012m16.162.014h1.248c.1,0,.208,0,.311-.008A1.025,1.025,0,0,0,23.06,18.06q0-1.96,0-3.921a2,2,0,0,0-.428-1.305,1.231,1.231,0,0,0-.647-.471,11.1,11.1,0,0,0-1.548-.022Zm-5.482,4.158a1.94,1.94,0,1,0-3.88-.058A2.015,2.015,0,0,0,13.063,25.3a1.907,1.907,0,0,0,1.892-1.905" transform="translate(0 0.001)" fill="#f57c20" stroke="#ffb536" stroke-width="0.2"/>
    </g>
  </g>
</svg>
