<svg id="Group_7829" data-name="Group 7829" xmlns="http://www.w3.org/2000/svg" xmlns:xlink="http://www.w3.org/1999/xlink" width="129.951" height="33.137" viewBox="0 0 129.951 33.137">
  <defs>
    <linearGradient id="linear-gradient" x1="0.5" y1="-0.19" x2="0.5" y2="1.4" gradientUnits="objectBoundingBox">
      <stop offset="0" stop-color="#3480b9"/>
      <stop offset="0.476" stop-color="#5bc8eb"/>
      <stop offset="0.999" stop-color="#44a16a"/>
    </linearGradient>
    <linearGradient id="linear-gradient-2" x1="-2.639" y1="3.752" x2="-2.081" y2="4.271" xlink:href="#linear-gradient"/>
    <linearGradient id="linear-gradient-3" x1="114.965" y1="52.809" x2="114.406" y2="52.314" xlink:href="#linear-gradient"/>
  </defs>
  <g id="Group_7697" data-name="Group 7697" transform="translate(50.754 2.457)">
    <g id="Group_7684" data-name="Group 7684" transform="translate(0.224 16.019)">
      <g id="Group_7683" data-name="Group 7683">
        <path id="Path_2639" data-name="Path 2639" d="M233.33,114.623h5.9c4.378,0,7.368,2.7,7.368,6.752s-2.99,6.752-7.368,6.752h-5.9ZM239.117,126c3.009,0,4.958-1.831,4.958-4.629s-1.949-4.631-4.958-4.631h-3.275V126h3.28Z" transform="translate(-233.33 -114.623)" fill="#fff"/>
      </g>
    </g>
    <g id="Group_7686" data-name="Group 7686" transform="translate(16.158 16.019)">
      <g id="Group_7685" data-name="Group 7685">
        <path id="Path_2640" data-name="Path 2640" d="M278.24,114.623h2.508v13.5H278.24Z" transform="translate(-278.24 -114.623)" fill="#fff"/>
      </g>
    </g>
    <g id="Group_7688" data-name="Group 7688" transform="translate(21.342 15.818)">
      <g id="Group_7687" data-name="Group 7687">
        <path id="Path_2641" data-name="Path 2641" d="M303.046,120.869h2.373v5.382a8.548,8.548,0,0,1-5.288,1.717c-4.187,0-7.273-2.913-7.273-6.944s3.086-6.944,7.311-6.944a6.972,6.972,0,0,1,5.42,2.2l-1.581,1.543a5.012,5.012,0,0,0-3.723-1.543,4.747,4.747,0,1,0-.019,9.49,5.453,5.453,0,0,0,2.777-.695v-4.206Z" transform="translate(-292.857 -114.072)" fill="#fff"/>
      </g>
    </g>
    <g id="Group_7690" data-name="Group 7690" transform="translate(37.204 16.019)">
      <g id="Group_7689" data-name="Group 7689">
        <path id="Path_2642" data-name="Path 2642" d="M337.559,114.623h2.508v13.5h-2.508Z" transform="translate(-337.559 -114.623)" fill="#fff"/>
      </g>
    </g>
    <g id="Group_7692" data-name="Group 7692" transform="translate(41.622 16.018)">
      <g id="Group_7691" data-name="Group 7691">
        <path id="Path_2643" data-name="Path 2643" d="M354.486,116.741h-4.475V114.62h11.456v2.121h-4.475v11.384h-2.508V116.741Z" transform="translate(-350.011 -114.62)" fill="#fff"/>
      </g>
    </g>
    <g id="Group_7694" data-name="Group 7694" transform="translate(68.744 16.019)">
      <g id="Group_7693" data-name="Group 7693">
        <path id="Path_2644" data-name="Path 2644" d="M426.455,114.623h2.508V126h7.061v2.121h-9.569Z" transform="translate(-426.455 -114.623)" fill="#fff"/>
      </g>
    </g>
    <g id="Group_7695" data-name="Group 7695" transform="translate(52.293 15.563)">
      <path id="Path_2645" data-name="Path 2645" d="M393.742,127.493a1.2,1.2,0,0,1-1.062-.639l-5.187-9.755-4.22,7.99h4.556a1.2,1.2,0,1,1,0,2.4h-6.544a1.2,1.2,0,0,1-1.062-1.761l6.209-11.756a1.2,1.2,0,0,1,1.061-.639h0a1.2,1.2,0,0,1,1.061.639l6.248,11.756a1.2,1.2,0,0,1-1.059,1.764Z" transform="translate(-380.085 -113.336)" fill="url(#linear-gradient)"/>
    </g>
    <g id="Group_7696" data-name="Group 7696">
      <path id="Path_2646" data-name="Path 2646" d="M242.594,80.726l-8.81-11.253H232.7v13.7h1.322V71.918l8.829,11.254h1.065v-13.7h-1.322Z" transform="translate(-232.7 -69.473)" fill="#fff"/>
      <path id="Path_2647" data-name="Path 2647" d="M276.175,69.473l-6.305,13.7h1.44l1.7-3.755h7.51l1.716,3.756h1.439l-6.305-13.7ZM280,78.242h-6.446l3.214-7.1Z" transform="translate(-256.685 -69.473)" fill="#fff"/>
      <path id="Path_2648" data-name="Path 2648" d="M306.1,70.7h4.8V83.172h1.322V70.7h4.8V69.473H306.1Z" transform="translate(-280.057 -69.473)" fill="#fff"/>
      <path id="Path_2649" data-name="Path 2649" d="M352.583,75.611h-8.567V69.473h-1.322v13.7h1.322V76.823h8.567v6.348h1.322v-13.7h-1.322Z" transform="translate(-303.666 -69.473)" fill="#fff"/>
      <path id="Path_2650" data-name="Path 2650" d="M386.161,69.473l-6.305,13.7h1.44l1.7-3.755h7.51l1.716,3.756h1.439l-6.305-13.7Zm3.822,8.769h-6.445l3.214-7.1Z" transform="translate(-327.648 -69.473)" fill="#fff"/>
      <path id="Path_2651" data-name="Path 2651" d="M434.2,69.473V80.726l-8.81-11.253h-1.083v13.7h1.322V71.918l8.829,11.254h1.065v-13.7Z" transform="translate(-356.326 -69.473)" fill="#fff"/>
    </g>
  </g>
  <g id="Group_7701" data-name="Group 7701">
    <g id="Group_7699" data-name="Group 7699" transform="translate(0 2.337)">
      <path id="Path_2652" data-name="Path 2652" d="M96.655,99.934a6.962,6.962,0,0,1-4.8-1.959,6.847,6.847,0,0,1-1.7-7.636l.031-.071,7.932-17.223a6.415,6.415,0,0,1,4.77-3.8,6.931,6.931,0,0,1,6.286,2.107L119.34,82.087a2.129,2.129,0,0,1-3.093,2.926L106.087,74.274a2.692,2.692,0,0,0-2.427-.845,2.125,2.125,0,0,0-1.627,1.3L102,74.8,94.074,92.014a2.609,2.609,0,0,0,.712,2.877,2.56,2.56,0,0,0,2.885.552l5.148-2.462a2.129,2.129,0,1,1,1.837,3.841l-5.148,2.461a6.61,6.61,0,0,1-2.853.651Z" transform="translate(-89.649 -69.134)" fill="url(#linear-gradient-2)"/>
    </g>
    <g id="Group_7700" data-name="Group 7700" transform="translate(12.904)">
      <path id="Path_2653" data-name="Path 2653" d="M141.827,94.724a6.983,6.983,0,0,1-5.069-2.217L126.6,81.768a2.129,2.129,0,1,1,3.093-2.926l10.161,10.739a2.69,2.69,0,0,0,2.428.845,2.125,2.125,0,0,0,1.627-1.3l7.957-18.688a2.6,2.6,0,0,0-.712-2.894A2.56,2.56,0,0,0,148.265,67l-5.148,2.462a2.129,2.129,0,1,1-1.837-3.841l5.148-2.461a6.99,6.99,0,0,1,9.356,8.943l-7.961,18.687a6.407,6.407,0,0,1-4.78,3.829,6.769,6.769,0,0,1-1.22.109Z" transform="translate(-126.015 -62.546)" fill="url(#linear-gradient-3)"/>
    </g>
  </g>
</svg>
